<svg width="120" height="113" viewBox="0 0 120 113" fill="none" xmlns="http://www.w3.org/2000/svg">
<path d="M55.04 0.57C28.72 -0.0299998 -0.310004 21.8 0.249996 57.16C0.739996 88.25 24.1 111.78 54.37 112.27C84.64 112.76 111.46 92.75 111.62 57C111.79 20.97 83.99 1.23 55.04 0.57Z" fill="#FF2A23"/>
<path d="M55.12 13.19C34.24 13.9 13.17 29.48 12.68 56.95C12.19 84.42 36.2 99.72 55.12 99.72C79.14 99.72 99.21 80.8 98.71 55.63C98.22 30.47 79.3 12.37 55.12 13.19Z" fill="#FFFDFE"/>
<path d="M55.61 23.89C36.69 23.46 22.71 40.18 22.54 56.13C22.38 72.42 32.57 89.03 55.28 89.85C77.99 90.67 88.67 72.58 89 57.28C89.34 41.98 77.16 24.38 55.61 23.89Z" fill="#FF2A23"/>
<path d="M33.98 56.73C33.82 71.04 44.01 79.27 56.35 79.27C67.56 79.27 78.56 72.2 78.56 57.23C78.56 43.74 68.36 35.68 57.01 35.19C45.66 34.69 34.14 42.92 33.98 56.73Z" fill="white"/>
<path d="M44.1 56.62C43.49 65.15 50.43 69.23 56.68 69.23C62.6 69.23 68.44 65.34 68.61 57.44C68.76 50.02 62.94 45.49 56.68 45.27C50.22 45.05 44.59 49.69 44.1 56.62Z" fill="#FB2B22"/>
<path d="M79.42 47.41C78.52 45.55 77.6 44.06 75.16 44.52C72.73 44.98 68.24 47.56 67.4 48.78C66.63 49.9 65.88 51.29 65.88 51.29C65.88 51.29 57.28 55.99 55.92 56.76C53.79 57.98 55.26 60.46 56.76 60.18C58.81 59.8 67.97 56.07 67.97 56.07C67.97 56.07 69.91 56.53 71.05 56.53C72.19 56.53 78.69 53.32 79.57 52.73C81.02 51.74 80.33 49.31 79.42 47.41Z" fill="#ACB1B5"/>
<path d="M73.61 50.37C74.74 52.48 76.61 52.5 78.59 51.66C80.57 50.82 89.92 44.21 89.92 44.21C89.92 44.21 102.62 50.6 110.83 47.4C119.04 44.21 118.81 35.54 118.81 35.54L113.95 32.46C113.95 32.46 117.49 30.62 118.63 29.94C119.19 29.6 120.02 28.34 119.56 27.21C119.2 26.33 117.82 26.03 116.68 26.49C115.54 26.95 112.25 27.98 112.25 27.98C112.25 27.98 113.56 22.53 113.33 22.23C113.1 21.93 110.74 20.71 110.74 20.71C110.74 20.71 103.06 20.71 102.07 21.09C101.08 21.47 93.48 29 93.48 29L89.83 36.45L88.27 39.77C88.27 39.77 77.62 44.54 76.02 45.22C74.43 45.91 72.22 47.8 73.61 50.37Z" fill="#006CA9"/>
<path d="M90.54 38.85C90.54 38.85 95.02 35.61 98.21 34.01C101.4 32.41 107.32 30.46 109.07 30.25C110.82 30.04 111.54 30.51 111.85 31.33C112.16 32.15 111.13 33.18 110.25 33.65C109.38 34.11 104.74 36.22 99.6 38.95C94.46 41.68 92.02 43.68 89.94 44.15C88.89 44.39 87.54 43.45 87.46 41.88C87.4 40.66 87.64 39.64 88.44 37.3C89.42 34.42 91.57 30.09 93.38 27.27C96.06 23.1 99.92 20.27 104.19 19.5C108.46 18.73 111.96 19.81 112.84 20.53C113.71 21.25 113.66 21.99 113.35 22.24C113.04 22.49 112.58 22.69 110.26 21.87C108.65 21.3 103.52 21.3 99.92 23.98C96.28 26.68 95.39 28.35 93.8 31.29C92.21 34.23 90.54 38.85 90.54 38.85Z" fill="#1F87FD"/>
</svg>
